<svg data-v-70b83f88="" version="1.0" xmlns="http://www.w3.org/2000/svg" xmlns:xlink="http://www.w3.org/1999/xlink" width="500" height="500" viewBox="0 0 340.000000 250.000000" preserveAspectRatio="xMidYMid meet" color-interpolation-filters="sRGB" style="margin: auto;"><rect data-v-70b83f88="" x="0" y="0" width="100%" height="100%" fill="#ffffff" fill-opacity="1" class="background"></rect> <rect data-v-70b83f88="" x="0" y="0" width="100%" height="100%" fill="url(#watermark)" fill-opacity="0" class="watermarklayer"></rect> <g data-v-70b83f88="" fill="#35495e" class="basesvg"><g data-gra="path-name" fill-rule="" class="tp-name"><g transform="scale(4)"><g><path d="M16.25 5.66Q11.51 5.66 8.32 3.38 5.13 1.1 3.61-2.54 2.08-6.17 2.08-10.4L2.08-10.4Q2.08-18.79 6.21-27.27 10.34-35.75 16.77-41.24 23.21-46.73 29.71-46.73L29.71-46.73Q32.76-46.73 34.61-45.3 36.47-43.88 36.47-40.82L36.47-40.82Q36.47-38.22 35.26-34.84 34.06-31.46 32.21-29.09 30.36-26.71 28.47-26.71L28.47-26.71Q26.85-26.71 25.8-28.73L25.8-28.73Q28.28-31.46 30.58-35.23 32.89-39 32.89-41.34L32.89-41.34Q32.89-43.88 29.96-43.88L29.96-43.88Q25.41-43.88 20.31-38.35 15.21-32.83 11.8-24.77 8.38-16.71 8.38-9.81L8.38-9.81Q8.38-4.62 10.72-1.04 13.07 2.54 17.81 2.54L17.81 2.54Q21.19 2.54 24.7 0.62 28.21-1.3 31.14-4.49 34.06-7.67 35.81-11.38L35.81-11.38 37.51-10.27Q33.8-3.25 28.31 1.2 22.82 5.66 16.25 5.66L16.25 5.66ZM51.03 5.66Q47.84 5.66 45.86 4.55 43.88 3.45 43.88 1.36L43.88 1.36Q43.88-1.24 47.65-2.34L47.65-2.34Q47.65 0.13 48.33 1.69 49.01 3.25 51.16 3.25L51.16 3.25Q54.99 3.25 58.24-0.1 61.49-3.45 63.77-8.71 66.04-13.97 67.28-19.89L67.28-19.89Q65.13-18.27 62.34-17.36 59.54-16.45 56.62-16.45L56.62-16.45Q52.85-16.45 49.82-17.97 46.8-19.5 45.05-22.55 43.29-25.61 43.29-29.9L43.29-29.9Q43.29-34.84 45.4-38.68 47.52-42.51 51.35-44.66 55.19-46.8 60.26-46.8L60.26-46.8Q68.06-46.8 71.73-41.73 75.4-36.66 75.4-28.67L75.4-28.67Q75.4-21.06 72.38-13.03 69.36-5 63.8 0.33 58.24 5.66 51.03 5.66L51.03 5.66ZM59.22-19.57Q63.83-19.57 66.14-22.49 68.45-25.41 68.45-30.62L68.45-30.62Q68.45-35.62 66.46-39.72 64.48-43.81 60-43.81L60-43.81Q57.01-43.81 54.7-41.8 52.39-39.78 51.19-36.53 49.99-33.28 49.99-29.71L49.99-29.71Q49.99-24.7 52.46-22.13 54.93-19.57 59.22-19.57L59.22-19.57Z" transform="translate(-2.0799999237060547, 46.79999923706055)"></path></g> </g></g></g></svg>